<?xml version="1.0" encoding="UTF-8" standalone="no"?>
<!DOCTYPE svg PUBLIC "-//W3C//DTD SVG 1.1//EN"
 "http://www.w3.org/Graphics/SVG/1.1/DTD/svg11.dtd">
<!-- Generated by graphviz version 2.26.3 (20100126.1600)
 -->
<!-- Title: models_diagram Pages: 1 -->
<svg width="2591pt" height="530pt"
 viewBox="0.00 0.00 2591.00 530.00" xmlns="http://www.w3.org/2000/svg" xmlns:xlink="http://www.w3.org/1999/xlink">
<g id="graph1" class="graph" transform="scale(1 1) rotate(0) translate(4 526)">
<title>models_diagram</title>
<polygon fill="white" stroke="white" points="-4,5 -4,-526 2588,-526 2588,5 -4,5"/>
<!-- _diagram_info -->
<g id="node1" class="node"><title>_diagram_info</title>
<text text-anchor="start" x="899" y="-505.8" font-family="Times Roman,serif" font-size="13.00">Models diagram</text>
<text text-anchor="start" x="899" y="-488.8" font-family="Times Roman,serif" font-size="13.00">Date: Jan 27 2015 &#45; 23:08</text>
<text text-anchor="start" x="899" y="-471.8" font-family="Times Roman,serif" font-size="13.00">Migration version: 104</text>
<text text-anchor="start" x="899" y="-454.8" font-family="Times Roman,serif" font-size="13.00">Generated by RailRoady 1.3.0</text>
<text text-anchor="start" x="899" y="-437.8" font-family="Times Roman,serif" font-size="13.00">http://railroady.prestonlee.com</text>
</g>
<!-- Page -->
<g id="node2" class="node"><title>Page</title>
<ellipse fill="none" stroke="black" cx="1154" cy="-475" rx="34.8574" ry="18.3848"/>
<text text-anchor="middle" x="1154" y="-471.4" font-family="Times Roman,serif" font-size="14.00">Page</text>
</g>
<!-- User -->
<g id="node12" class="node"><title>User</title>
<ellipse fill="none" stroke="black" cx="470" cy="-355" rx="33.9411" ry="18.3848"/>
<text text-anchor="middle" x="470" y="-351.4" font-family="Times Roman,serif" font-size="14.00">User</text>
</g>
<!-- Page&#45;&gt;User -->
<g id="edge4" class="edge"><title>Page&#45;&gt;User</title>
<path fill="none" stroke="#8ca4b3" d="M1135.83,-449.205C1128.74,-441.067 1119.91,-432.923 1110,-428 1058.07,-402.208 648.491,-381.499 591,-374 564.944,-370.601 535.848,-366.056 512.719,-362.264"/>
<polygon fill="#8ca4b3" stroke="#8ca4b3" points="1136.03,-449.453 1138.84,-460.055 1139.18,-453.337 1142.33,-457.221 1142.33,-457.221 1142.33,-457.221 1139.18,-453.337 1145.83,-454.387 1136.03,-449.453 1136.03,-449.453"/>
<polygon fill="#8ca4b3" stroke="#8ca4b3" points="512.411,-362.213 503.279,-356.142 507.478,-361.397 502.545,-360.581 502.545,-360.581 502.545,-360.581 507.478,-361.397 501.811,-365.021 512.411,-362.213 512.411,-362.213"/>
<text text-anchor="middle" x="1052.5" y="-397.4" font-family="Times Roman,serif" font-size="14.00">notify_users</text>
</g>
<!-- Trigger -->
<g id="node14" class="node"><title>Trigger</title>
<ellipse fill="none" stroke="black" cx="487" cy="-95" rx="44.7575" ry="18.3848"/>
<text text-anchor="middle" x="487" y="-91.4" font-family="Times Roman,serif" font-size="14.00">Trigger</text>
</g>
<!-- Page&#45;&gt;Trigger -->
<g id="edge10" class="edge"><title>Page&#45;&gt;Trigger</title>
<path fill="none" stroke="#7f818e" d="M1154,-448.243C1154,-423.924 1154,-387.054 1154,-355 1154,-355 1154,-355 1154,-217 1154,-178.577 1131.22,-169.471 1097,-152 1090.83,-148.849 690.091,-113.022 541.58,-99.8342"/>
<ellipse fill="none" stroke="#7f818e" cx="1154" cy="-452.293" rx="4" ry="4"/>
<polygon fill="#7f818e" stroke="#7f818e" points="541.293,-99.8088 531.73,-94.4422 536.313,-99.3667 531.332,-98.9246 531.332,-98.9246 531.332,-98.9246 536.313,-99.3667 530.934,-103.407 541.293,-99.8088 541.293,-99.8088"/>
</g>
<!-- Notification -->
<g id="node15" class="node"><title>Notification</title>
<ellipse fill="none" stroke="black" cx="202" cy="-95" rx="67.1751" ry="18.3848"/>
<text text-anchor="middle" x="202" y="-91.4" font-family="Times Roman,serif" font-size="14.00">Notification</text>
</g>
<!-- Page&#45;&gt;Notification -->
<g id="edge2" class="edge"><title>Page&#45;&gt;Notification</title>
<path fill="none" stroke="#5dc845" d="M1137.25,-450.519C1129.95,-441.859 1120.63,-433.028 1110,-428 1054.64,-401.812 896.11,-414.013 835,-410 742.221,-403.908 0,-447.979 0,-355 0,-355 0,-355 0,-171 0,-141.513 76.3573,-119.556 135.18,-107.016"/>
<ellipse fill="none" stroke="#5dc845" cx="1139.93" cy="-453.908" rx="4.00002" ry="4.00002"/>
<polygon fill="#5dc845" stroke="#5dc845" points="135.403,-106.969 146.11,-109.34 140.299,-105.952 145.194,-104.935 145.194,-104.935 145.194,-104.935 140.299,-105.952 144.278,-100.529 135.403,-106.969 135.403,-106.969"/>
</g>
<!-- Redirection -->
<g id="node18" class="node"><title>Redirection</title>
<ellipse fill="none" stroke="black" cx="770" cy="-19" rx="65.9683" ry="18.3848"/>
<text text-anchor="middle" x="770" y="-15.4" font-family="Times Roman,serif" font-size="14.00">Redirection</text>
</g>
<!-- Page&#45;&gt;Redirection -->
<g id="edge6" class="edge"><title>Page&#45;&gt;Redirection</title>
<path fill="none" stroke="#03e679" d="M1173.47,-451.205C1195.98,-422.69 1230,-376.118 1230,-355 1230,-355 1230,-355 1230,-95 1230,-56.4326 975.04,-33.1672 844.749,-23.796"/>
<ellipse fill="none" stroke="#03e679" cx="1170.79" cy="-454.565" rx="4.00002" ry="4.00002"/>
<polygon fill="#03e679" stroke="#03e679" points="844.42,-23.7728 834.764,-18.5764 839.433,-23.419 834.445,-23.0652 834.445,-23.0652 834.445,-23.0652 839.433,-23.419 834.127,-27.5539 844.42,-23.7728 844.42,-23.7728"/>
</g>
<!-- Redirect -->
<g id="node21" class="node"><title>Redirect</title>
<ellipse fill="none" stroke="black" cx="770" cy="-95" rx="51.1176" ry="18.3848"/>
<text text-anchor="middle" x="770" y="-91.4" font-family="Times Roman,serif" font-size="14.00">Redirect</text>
</g>
<!-- Page&#45;&gt;Redirect -->
<g id="edge8" class="edge"><title>Page&#45;&gt;Redirect</title>
<path fill="none" stroke="#3c1c5b" d="M1167.9,-447.733C1178.75,-423.9 1192,-388.036 1192,-355 1192,-355 1192,-355 1192,-217 1192,-186.205 1191.95,-171.356 1168,-152 1117.47,-111.162 929.961,-99.5762 831.417,-96.294"/>
<polygon fill="#3c1c5b" stroke="#3c1c5b" points="1167.86,-447.816 1159.52,-454.939 1165.72,-452.338 1163.59,-456.859 1163.59,-456.859 1163.59,-456.859 1165.72,-452.338 1167.66,-458.78 1167.86,-447.816 1167.86,-447.816"/>
<polygon fill="#3c1c5b" stroke="#3c1c5b" points="831.294,-96.2902 821.44,-91.478 826.296,-96.133 821.299,-95.9758 821.299,-95.9758 821.299,-95.9758 826.296,-96.133 821.157,-100.474 831.294,-96.2902 831.294,-96.2902"/>
</g>
<!-- NotificationMailer -->
<g id="node3" class="node"><title>NotificationMailer</title>
<polygon fill="none" stroke="black" points="1343,-493 1207,-493 1207,-457 1343,-457 1343,-493"/>
<text text-anchor="middle" x="1275" y="-471.4" font-family="Times Roman,serif" font-size="14.00">NotificationMailer</text>
</g>
<!-- Resource -->
<g id="node4" class="node"><title>Resource</title>
<ellipse fill="none" stroke="black" cx="458" cy="-171" rx="55.8614" ry="18.3848"/>
<text text-anchor="middle" x="458" y="-167.4" font-family="Times Roman,serif" font-size="14.00">Resource</text>
</g>
<!-- Profile -->
<g id="node5" class="node"><title>Profile</title>
<ellipse fill="none" stroke="black" cx="1398" cy="-355" rx="41.9273" ry="18.3848"/>
<text text-anchor="middle" x="1398" y="-351.4" font-family="Times Roman,serif" font-size="14.00">Profile</text>
</g>
<!-- WebNotifier -->
<g id="node6" class="node"><title>WebNotifier</title>
<polygon fill="none" stroke="black" points="1551,-493 1453,-493 1453,-457 1551,-457 1551,-493"/>
<text text-anchor="middle" x="1502" y="-471.4" font-family="Times Roman,serif" font-size="14.00">WebNotifier</text>
</g>
<!-- Blog -->
<g id="node7" class="node"><title>Blog</title>
<ellipse fill="none" stroke="black" cx="1602" cy="-475" rx="33.234" ry="18.3848"/>
<text text-anchor="middle" x="1602" y="-471.4" font-family="Times Roman,serif" font-size="14.00">Blog</text>
</g>
<!-- Ping -->
<g id="node8" class="node"><title>Ping</title>
<ellipse fill="none" stroke="black" cx="565" cy="-171" rx="33.234" ry="18.3848"/>
<text text-anchor="middle" x="565" y="-167.4" font-family="Times Roman,serif" font-size="14.00">Ping</text>
</g>
<!-- Feedback -->
<g id="node9" class="node"><title>Feedback</title>
<ellipse fill="none" stroke="black" cx="672" cy="-171" rx="56.0679" ry="18.3848"/>
<text text-anchor="middle" x="672" y="-167.4" font-family="Times Roman,serif" font-size="14.00">Feedback</text>
</g>
<!-- Feedback&#45;&gt;User -->
<g id="edge14" class="edge"><title>Feedback&#45;&gt;User</title>
<path fill="none" stroke="#d63041" d="M620.269,-186.173C615.783,-187.473 611.312,-188.763 607,-190 547.648,-207.02 512.301,-192.006 479,-244 463.356,-268.425 462.957,-302.343 465.307,-326.24"/>
<polygon fill="#d63041" stroke="#d63041" points="620.457,-186.119 631.315,-187.649 625.258,-184.723 630.06,-183.328 630.06,-183.328 630.06,-183.328 625.258,-184.723 628.804,-179.007 620.457,-186.119 620.457,-186.119"/>
<polygon fill="#d63041" stroke="#d63041" points="465.34,-326.516 462.068,-336.982 465.938,-331.48 466.536,-336.444 466.536,-336.444 466.536,-336.444 465.938,-331.48 471.004,-335.906 465.34,-326.516 465.34,-326.516"/>
<text text-anchor="middle" x="521.5" y="-259.4" font-family="Times Roman,serif" font-size="14.00">notify_users</text>
</g>
<!-- Feedback&#45;&gt;Trigger -->
<g id="edge20" class="edge"><title>Feedback&#45;&gt;Trigger</title>
<path fill="none" stroke="#d6977d" d="M629.363,-153.484C599.01,-141.015 558.44,-124.348 528.376,-111.998"/>
<ellipse fill="none" stroke="#d6977d" cx="633.068" cy="-155.006" rx="4.00002" ry="4.00002"/>
<polygon fill="#d6977d" stroke="#d6977d" points="528.26,-111.95 520.72,-103.988 523.635,-110.05 519.01,-108.15 519.01,-108.15 519.01,-108.15 523.635,-110.05 517.3,-112.313 528.26,-111.95 528.26,-111.95"/>
</g>
<!-- Feedback&#45;&gt;Notification -->
<g id="edge12" class="edge"><title>Feedback&#45;&gt;Notification</title>
<path fill="none" stroke="#b3b74d" d="M623.342,-155.952C617.858,-154.502 612.328,-153.147 607,-152 492.504,-127.344 357.418,-110.797 275.807,-102.146"/>
<ellipse fill="none" stroke="#b3b74d" cx="627.457" cy="-157.076" rx="4.00001" ry="4.00001"/>
<polygon fill="#b3b74d" stroke="#b3b74d" points="275.581,-102.122 266.104,-96.6037 270.608,-101.601 265.635,-101.079 265.635,-101.079 265.635,-101.079 270.608,-101.601 265.166,-105.555 275.581,-102.122 275.581,-102.122"/>
</g>
<!-- Feedback&#45;&gt;Redirection -->
<g id="edge16" class="edge"><title>Feedback&#45;&gt;Redirection</title>
<path fill="none" stroke="#7b6ae2" d="M679.196,-144.576C685.397,-124.638 695.632,-97.1933 710,-76 718.095,-64.0592 729.07,-52.7167 739.421,-43.3401"/>
<ellipse fill="none" stroke="#7b6ae2" cx="678.012" cy="-148.522" rx="4.00001" ry="4.00001"/>
<polygon fill="#7b6ae2" stroke="#7b6ae2" points="739.628,-43.1585 750.118,-39.963 743.392,-39.867 747.156,-36.5756 747.156,-36.5756 747.156,-36.5756 743.392,-39.867 744.194,-33.1881 739.628,-43.1585 739.628,-43.1585"/>
</g>
<!-- Feedback&#45;&gt;Redirect -->
<g id="edge18" class="edge"><title>Feedback&#45;&gt;Redirect</title>
<path fill="none" stroke="#c7739d" d="M712.829,-150.682C721.188,-145.734 729.664,-140.092 737,-134 741.721,-130.08 746.301,-125.43 750.47,-120.731"/>
<polygon fill="#c7739d" stroke="#c7739d" points="712.563,-150.833 701.645,-151.854 708.214,-153.3 703.865,-155.768 703.865,-155.768 703.865,-155.768 708.214,-153.3 706.086,-159.682 712.563,-150.833 712.563,-150.833"/>
<polygon fill="#c7739d" stroke="#c7739d" points="750.62,-120.553 760.499,-115.792 753.837,-116.725 757.053,-112.897 757.053,-112.897 757.053,-112.897 753.837,-116.725 753.608,-110.002 750.62,-120.553 750.62,-120.553"/>
</g>
<!-- Trackback -->
<g id="node10" class="node"><title>Trackback</title>
<ellipse fill="none" stroke="black" cx="805" cy="-171" rx="58.8978" ry="18.3848"/>
<text text-anchor="middle" x="805" y="-167.4" font-family="Times Roman,serif" font-size="14.00">Trackback</text>
</g>
<!-- Trackback&#45;&gt;User -->
<g id="edge24" class="edge"><title>Trackback&#45;&gt;User</title>
<path fill="none" stroke="#264d56" d="M867.644,-181.866C898.928,-190.205 927.035,-204.091 911,-226 886.778,-259.096 616.88,-322.266 511.653,-345.834"/>
<polygon fill="#264d56" stroke="#264d56" points="867.586,-181.852 858.957,-175.085 862.732,-180.653 857.878,-179.454 857.878,-179.454 857.878,-179.454 862.732,-180.653 856.799,-183.822 867.586,-181.852 867.586,-181.852"/>
<polygon fill="#264d56" stroke="#264d56" points="511.464,-345.876 500.724,-343.662 506.584,-346.965 501.704,-348.054 501.704,-348.054 501.704,-348.054 506.584,-346.965 502.684,-352.446 511.464,-345.876 511.464,-345.876"/>
<text text-anchor="middle" x="923.5" y="-259.4" font-family="Times Roman,serif" font-size="14.00">notify_users</text>
</g>
<!-- Trackback&#45;&gt;Trigger -->
<g id="edge30" class="edge"><title>Trackback&#45;&gt;Trigger</title>
<path fill="none" stroke="#98ae7d" d="M753.219,-156.252C747.753,-154.779 742.269,-153.336 737,-152 668.169,-134.548 588.054,-116.715 537.439,-105.751"/>
<ellipse fill="none" stroke="#98ae7d" cx="757.329" cy="-157.372" rx="4.00001" ry="4.00001"/>
<polygon fill="#98ae7d" stroke="#98ae7d" points="537.186,-105.696 528.362,-99.1863 532.299,-104.641 527.412,-103.585 527.412,-103.585 527.412,-103.585 532.299,-104.641 526.462,-107.983 537.186,-105.696 537.186,-105.696"/>
</g>
<!-- Trackback&#45;&gt;Notification -->
<g id="edge22" class="edge"><title>Trackback&#45;&gt;Notification</title>
<path fill="none" stroke="#aa513f" d="M754.766,-155.958C748.812,-154.474 742.794,-153.11 737,-152 650.67,-135.459 402.107,-112.431 276.518,-101.395"/>
<ellipse fill="none" stroke="#aa513f" cx="758.946" cy="-157.04" rx="4.00001" ry="4.00001"/>
<polygon fill="#aa513f" stroke="#aa513f" points="276.186,-101.366 266.617,-96.0098 271.205,-100.929 266.224,-100.493 266.224,-100.493 266.224,-100.493 271.205,-100.929 265.831,-104.975 276.186,-101.366 276.186,-101.366"/>
</g>
<!-- Trackback&#45;&gt;Redirection -->
<g id="edge26" class="edge"><title>Trackback&#45;&gt;Redirection</title>
<path fill="none" stroke="#7c338b" d="M820.622,-145.535C830.499,-126.007 839.724,-98.6507 830,-76 824.444,-63.0594 814.348,-51.6723 804.001,-42.5461"/>
<ellipse fill="none" stroke="#7c338b" cx="818.727" cy="-149.082" rx="4.00002" ry="4.00002"/>
<polygon fill="#7c338b" stroke="#7c338b" points="803.817,-42.3937 798.98,-32.5522 799.964,-39.2067 796.112,-36.0196 796.112,-36.0196 796.112,-36.0196 799.964,-39.2067 793.243,-39.487 803.817,-42.3937 803.817,-42.3937"/>
</g>
<!-- Trackback&#45;&gt;Redirect -->
<g id="edge28" class="edge"><title>Trackback&#45;&gt;Redirect</title>
<path fill="none" stroke="#7ceb83" d="M793.986,-143.322C792.365,-139.496 790.675,-135.635 789,-132 787.535,-128.821 785.944,-125.52 784.326,-122.256"/>
<polygon fill="#7ceb83" stroke="#7ceb83" points="794.005,-143.368 793.671,-154.329 795.917,-147.988 797.829,-152.608 797.829,-152.608 797.829,-152.608 795.917,-147.988 801.987,-150.887 794.005,-143.368 794.005,-143.368"/>
<polygon fill="#7ceb83" stroke="#7ceb83" points="784.304,-122.212 783.797,-111.257 782.043,-117.752 779.783,-113.292 779.783,-113.292 779.783,-113.292 782.043,-117.752 775.769,-115.326 784.304,-122.212 784.304,-122.212"/>
</g>
<!-- Right -->
<g id="node11" class="node"><title>Right</title>
<ellipse fill="none" stroke="black" cx="1398" cy="-475" rx="36.977" ry="18.3848"/>
<text text-anchor="middle" x="1398" y="-471.4" font-family="Times Roman,serif" font-size="14.00">Right</text>
</g>
<!-- Right&#45;&gt;Profile -->
<g id="edge32" class="edge"><title>Right&#45;&gt;Profile</title>
<path fill="none" stroke="#cd0688" d="M1398,-446.236C1398,-427.315 1398,-402.647 1398,-383.732"/>
<polygon fill="#cd0688" stroke="#cd0688" points="1398,-446.25 1393.5,-456.25 1398,-451.25 1398,-456.25 1398,-456.25 1398,-456.25 1398,-451.25 1402.5,-456.25 1398,-446.25 1398,-446.25"/>
<polygon fill="#cd0688" stroke="#cd0688" points="1398,-383.618 1402.5,-373.618 1398,-378.618 1398,-373.618 1398,-373.618 1398,-373.618 1398,-378.618 1393.5,-373.618 1398,-383.618 1398,-383.618"/>
</g>
<!-- User&#45;&gt;Notification -->
<g id="edge34" class="edge"><title>User&#45;&gt;Notification</title>
<path fill="none" stroke="#735d79" d="M427.949,-354.433C346.4,-352.714 170.113,-345.797 117,-318 48.2616,-282.025 19.7829,-216.432 63,-152 78.8512,-128.368 106.438,-114.526 132.878,-106.422"/>
<ellipse fill="none" stroke="#735d79" cx="432.007" cy="-354.513" rx="4" ry="4"/>
<polygon fill="#735d79" stroke="#735d79" points="132.921,-106.41 143.768,-108.018 137.732,-105.049 142.543,-103.688 142.543,-103.688 142.543,-103.688 137.732,-105.049 141.319,-99.3578 132.921,-106.41 132.921,-106.41"/>
</g>
<!-- Content -->
<g id="node16" class="node"><title>Content</title>
<ellipse fill="none" stroke="black" cx="123" cy="-171" rx="51.1176" ry="18.3848"/>
<text text-anchor="middle" x="123" y="-167.4" font-family="Times Roman,serif" font-size="14.00">Content</text>
</g>
<!-- User&#45;&gt;Content -->
<g id="edge36" class="edge"><title>User&#45;&gt;Content</title>
<path fill="none" stroke="#236b6a" d="M425.892,-353.469C335.917,-349.28 136.442,-334.181 98,-282 80.0025,-257.57 92.6044,-222.493 105.564,-198.342"/>
<polygon fill="#236b6a" stroke="#236b6a" points="426.057,-353.476 435.849,-358.412 431.052,-353.696 436.047,-353.917 436.047,-353.917 436.047,-353.917 431.052,-353.696 436.246,-349.421 426.057,-353.476 426.057,-353.476"/>
<polygon fill="#236b6a" stroke="#236b6a" points="105.732,-198.046 114.586,-191.576 108.203,-193.699 110.673,-189.352 110.673,-189.352 110.673,-189.352 108.203,-193.699 106.761,-187.129 105.732,-198.046 105.732,-198.046"/>
<text text-anchor="middle" x="152" y="-259.4" font-family="Times Roman,serif" font-size="14.00">notify_contents</text>
</g>
<!-- Article -->
<g id="node30" class="node"><title>Article</title>
<ellipse fill="none" stroke="black" cx="616" cy="-263" rx="43.1335" ry="18.3848"/>
<text text-anchor="middle" x="616" y="-259.4" font-family="Times Roman,serif" font-size="14.00">Article</text>
</g>
<!-- User&#45;&gt;Article -->
<g id="edge38" class="edge"><title>User&#45;&gt;Article</title>
<path fill="none" stroke="#9a3480" d="M483.159,-329.872C489.716,-319.402 498.5,-307.874 509,-300 510.4,-298.95 543.35,-287.62 572.318,-277.771"/>
<ellipse fill="none" stroke="#9a3480" cx="481.027" cy="-333.456" rx="4.00002" ry="4.00002"/>
<polygon fill="#9a3480" stroke="#9a3480" points="572.469,-277.72 583.385,-278.766 577.204,-276.112 581.938,-274.504 581.938,-274.504 581.938,-274.504 577.204,-276.112 580.491,-270.243 572.469,-277.72 572.469,-277.72"/>
</g>
<!-- ConfigManager -->
<g id="node13" class="node"><title>ConfigManager</title>
<polygon fill="none" stroke="black" stroke-dasharray="1,5" points="1773,-493 1653,-493 1653,-457 1773,-457 1773,-493"/>
<text text-anchor="middle" x="1713" y="-471.4" font-family="Times Roman,serif" font-size="14.00">ConfigManager</text>
</g>
<!-- Content&#45;&gt;User -->
<g id="edge42" class="edge"><title>Content&#45;&gt;User</title>
<path fill="none" stroke="#91e75c" d="M153.819,-194.064C170.488,-207.483 190.728,-225.386 206,-244 218.378,-259.087 212.697,-269.889 228,-282 286.391,-328.212 373.699,-345.235 425.935,-351.46"/>
<polygon fill="#91e75c" stroke="#91e75c" points="153.806,-194.054 148.75,-184.324 149.883,-190.954 145.96,-187.854 145.96,-187.854 145.96,-187.854 149.883,-190.954 143.17,-191.385 153.806,-194.054 153.806,-194.054"/>
<polygon fill="#91e75c" stroke="#91e75c" points="425.956,-351.463 435.398,-357.039 430.926,-352.015 435.895,-352.567 435.895,-352.567 435.895,-352.567 430.926,-352.015 436.392,-348.094 425.956,-351.463 425.956,-351.463"/>
<text text-anchor="middle" x="270.5" y="-259.4" font-family="Times Roman,serif" font-size="14.00">notify_users</text>
</g>
<!-- Content&#45;&gt;Trigger -->
<g id="edge48" class="edge"><title>Content&#45;&gt;Trigger</title>
<path fill="none" stroke="#fbadf9" d="M175.485,-160.042C245.264,-145.472 367.754,-119.897 436.511,-105.542"/>
<ellipse fill="none" stroke="#fbadf9" cx="171.185" cy="-160.939" rx="4.00001" ry="4.00001"/>
<polygon fill="#fbadf9" stroke="#fbadf9" points="436.872,-105.466 447.58,-107.828 441.766,-104.444 446.661,-103.422 446.661,-103.422 446.661,-103.422 441.766,-104.444 445.741,-99.0175 436.872,-105.466 436.872,-105.466"/>
</g>
<!-- Content&#45;&gt;Notification -->
<g id="edge40" class="edge"><title>Content&#45;&gt;Notification</title>
<path fill="none" stroke="#915f59" d="M147.212,-147.708C156.336,-138.929 166.749,-128.913 176.028,-119.986"/>
<ellipse fill="none" stroke="#915f59" cx="144.205" cy="-150.6" rx="4.00002" ry="4.00002"/>
<polygon fill="#915f59" stroke="#915f59" points="176.296,-119.728 186.623,-116.038 179.9,-116.261 183.503,-112.795 183.503,-112.795 183.503,-112.795 179.9,-116.261 180.383,-109.552 176.296,-119.728 176.296,-119.728"/>
</g>
<!-- Content&#45;&gt;Redirection -->
<g id="edge44" class="edge"><title>Content&#45;&gt;Redirection</title>
<path fill="none" stroke="#9c63ad" d="M115.302,-144.535C110.873,-123.198 109.092,-93.8949 126,-76 164.304,-35.4598 531.34,-23.5109 693.556,-20.1943"/>
<ellipse fill="none" stroke="#9c63ad" cx="116.263" cy="-148.669" rx="4.00001" ry="4.00001"/>
<polygon fill="#9c63ad" stroke="#9c63ad" points="693.941,-20.1868 704.029,-24.4873 698.94,-20.0875 703.939,-19.9881 703.939,-19.9881 703.939,-19.9881 698.94,-20.0875 703.85,-15.489 693.941,-20.1868 693.941,-20.1868"/>
</g>
<!-- Content&#45;&gt;Redirect -->
<g id="edge46" class="edge"><title>Content&#45;&gt;Redirect</title>
<path fill="none" stroke="#d63a7f" d="M177.342,-159.581C191.511,-156.846 206.792,-154.111 221,-152 397.86,-125.726 608.563,-107.471 709.816,-99.5039"/>
<polygon fill="#d63a7f" stroke="#d63a7f" points="177.065,-159.635 166.385,-157.147 172.158,-160.599 167.252,-161.563 167.252,-161.563 167.252,-161.563 172.158,-160.599 168.12,-165.979 177.065,-159.635 177.065,-159.635"/>
<polygon fill="#d63a7f" stroke="#d63a7f" points="709.886,-99.4986 720.206,-103.206 714.871,-99.1091 719.855,-98.7195 719.855,-98.7195 719.855,-98.7195 714.871,-99.1091 719.505,-94.2332 709.886,-99.4986 709.886,-99.4986"/>
</g>
<!-- PageCache -->
<g id="node17" class="node"><title>PageCache</title>
<polygon fill="none" stroke="black" points="1883,-493 1791,-493 1791,-457 1883,-457 1883,-493"/>
<text text-anchor="middle" x="1837" y="-471.4" font-family="Times Roman,serif" font-size="14.00">PageCache</text>
</g>
<!-- PostType -->
<g id="node19" class="node"><title>PostType</title>
<ellipse fill="none" stroke="black" cx="1955" cy="-475" rx="53.9477" ry="18.3848"/>
<text text-anchor="middle" x="1955" y="-471.4" font-family="Times Roman,serif" font-size="14.00">PostType</text>
</g>
<!-- EmailNotifier -->
<g id="node20" class="node"><title>EmailNotifier</title>
<polygon fill="none" stroke="black" points="2131,-493 2027,-493 2027,-457 2131,-457 2131,-493"/>
<text text-anchor="middle" x="2079" y="-471.4" font-family="Times Roman,serif" font-size="14.00">EmailNotifier</text>
</g>
<!-- Redirect&#45;&gt;Redirection -->
<g id="edge50" class="edge"><title>Redirect&#45;&gt;Redirection</title>
<path fill="none" stroke="#3fe2fe" d="M770,-68.0731C770,-61.4485 770,-54.332 770,-47.6302"/>
<ellipse fill="none" stroke="#3fe2fe" cx="770" cy="-72.2135" rx="4" ry="4"/>
<polygon fill="#3fe2fe" stroke="#3fe2fe" points="770,-47.5704 774.5,-37.5704 770,-42.5704 770,-37.5704 770,-37.5704 770,-37.5704 770,-42.5704 765.5,-37.5705 770,-47.5704 770,-47.5704"/>
</g>
<!-- Tag -->
<g id="node22" class="node"><title>Tag</title>
<ellipse fill="none" stroke="black" cx="628" cy="-355" rx="27.7881" ry="18.3848"/>
<text text-anchor="middle" x="628" y="-351.4" font-family="Times Roman,serif" font-size="14.00">Tag</text>
</g>
<!-- Tag&#45;&gt;Article -->
<g id="edge52" class="edge"><title>Tag&#45;&gt;Article</title>
<path fill="none" stroke="#60f0ba" d="M624.262,-326.342C622.819,-315.283 621.173,-302.657 619.731,-291.604"/>
<polygon fill="#60f0ba" stroke="#60f0ba" points="624.278,-326.466 621.109,-336.964 624.925,-331.424 625.572,-336.382 625.572,-336.382 625.572,-336.382 624.925,-331.424 630.034,-335.8 624.278,-326.466 624.278,-326.466"/>
<polygon fill="#60f0ba" stroke="#60f0ba" points="619.718,-291.506 622.887,-281.008 619.072,-286.548 618.425,-281.59 618.425,-281.59 618.425,-281.59 619.072,-286.548 613.963,-282.172 619.718,-291.506 619.718,-291.506"/>
</g>
<!-- Theme -->
<g id="node23" class="node"><title>Theme</title>
<polygon fill="none" stroke="black" points="2213,-493 2149,-493 2149,-457 2213,-457 2213,-493"/>
<text text-anchor="middle" x="2181" y="-471.4" font-family="Times Roman,serif" font-size="14.00">Theme</text>
</g>
<!-- Categorization -->
<g id="node24" class="node"><title>Categorization</title>
<ellipse fill="none" stroke="black" cx="1004" cy="-171" rx="84.1457" ry="18.3848"/>
<text text-anchor="middle" x="1004" y="-167.4" font-family="Times Roman,serif" font-size="14.00">Categorization</text>
</g>
<!-- TextFilter -->
<g id="node25" class="node"><title>TextFilter</title>
<ellipse fill="none" stroke="black" cx="2288" cy="-475" rx="56.7776" ry="18.3848"/>
<text text-anchor="middle" x="2288" y="-471.4" font-family="Times Roman,serif" font-size="14.00">TextFilter</text>
</g>
<!-- Sidebar -->
<g id="node26" class="node"><title>Sidebar</title>
<ellipse fill="none" stroke="black" cx="2411" cy="-475" rx="48.0833" ry="18.3848"/>
<text text-anchor="middle" x="2411" y="-471.4" font-family="Times Roman,serif" font-size="14.00">Sidebar</text>
</g>
<!-- Comment -->
<g id="node27" class="node"><title>Comment</title>
<ellipse fill="none" stroke="black" cx="288" cy="-171" rx="58.1882" ry="18.3848"/>
<text text-anchor="middle" x="288" y="-167.4" font-family="Times Roman,serif" font-size="14.00">Comment</text>
</g>
<!-- Comment&#45;&gt;User -->
<g id="edge56" class="edge"><title>Comment&#45;&gt;User</title>
<path fill="none" stroke="#db8159" d="M262.36,-196.684C255.855,-206.264 252.364,-216.993 259,-226 275.009,-247.73 293.258,-231.162 317,-244 340.326,-256.613 341.803,-266.066 363,-282 388.12,-300.883 417.7,-320.903 439.385,-335.192"/>
<polygon fill="#db8159" stroke="#db8159" points="262.502,-196.502 272.214,-191.41 265.588,-192.568 268.673,-188.633 268.673,-188.633 268.673,-188.633 265.588,-192.568 265.132,-185.856 262.502,-196.502 262.502,-196.502"/>
<polygon fill="#db8159" stroke="#db8159" points="439.504,-335.27 445.398,-344.517 443.685,-338.012 447.866,-340.754 447.866,-340.754 447.866,-340.754 443.685,-338.012 450.334,-336.991 439.504,-335.27 439.504,-335.27"/>
<text text-anchor="middle" x="405.5" y="-259.4" font-family="Times Roman,serif" font-size="14.00">notify_users</text>
</g>
<!-- Comment&#45;&gt;Trigger -->
<g id="edge62" class="edge"><title>Comment&#45;&gt;Trigger</title>
<path fill="none" stroke="#0a4b41" d="M323.628,-150.716C335.873,-144.221 349.82,-137.337 363,-132 387.306,-122.158 415.227,-113.598 438.413,-107.198"/>
<ellipse fill="none" stroke="#0a4b41" cx="319.767" cy="-152.796" rx="4.00002" ry="4.00002"/>
<polygon fill="#0a4b41" stroke="#0a4b41" points="438.715,-107.116 449.544,-108.845 443.542,-105.809 448.368,-104.502 448.368,-104.502 448.368,-104.502 443.542,-105.809 447.191,-100.158 438.715,-107.116 438.715,-107.116"/>
</g>
<!-- Comment&#45;&gt;Notification -->
<g id="edge54" class="edge"><title>Comment&#45;&gt;Notification</title>
<path fill="none" stroke="#a97fc2" d="M261.993,-148.017C251.802,-139.011 240.093,-128.664 229.741,-119.515"/>
<ellipse fill="none" stroke="#a97fc2" cx="265.056" cy="-150.724" rx="4.00002" ry="4.00002"/>
<polygon fill="#a97fc2" stroke="#a97fc2" points="229.629,-119.417 225.116,-109.423 225.883,-116.106 222.136,-112.795 222.136,-112.795 222.136,-112.795 225.883,-116.106 219.156,-116.167 229.629,-119.417 229.629,-119.417"/>
</g>
<!-- Comment&#45;&gt;Redirection -->
<g id="edge58" class="edge"><title>Comment&#45;&gt;Redirection</title>
<path fill="none" stroke="#0aa8f5" d="M314.884,-148.425C342.648,-126.362 388.127,-93.5998 433,-76 518.954,-42.2876 624.918,-28.499 694.814,-22.8689"/>
<ellipse fill="none" stroke="#0aa8f5" cx="311.675" cy="-151.005" rx="4.00002" ry="4.00002"/>
<polygon fill="#0aa8f5" stroke="#0aa8f5" points="694.887,-22.8633 705.203,-26.5828 699.873,-22.4797 704.858,-22.096 704.858,-22.096 704.858,-22.096 699.873,-22.4797 704.513,-17.6093 694.887,-22.8633 694.887,-22.8633"/>
</g>
<!-- Comment&#45;&gt;Redirect -->
<g id="edge60" class="edge"><title>Comment&#45;&gt;Redirect</title>
<path fill="none" stroke="#bdf865" d="M346.864,-159.038C361.856,-156.352 377.978,-153.776 393,-152 463.51,-143.663 644.696,-156.616 712,-134 722.547,-130.456 732.98,-124.447 742.027,-118.194"/>
<polygon fill="#bdf865" stroke="#bdf865" points="346.529,-159.099 335.881,-156.479 341.611,-160.002 336.693,-160.905 336.693,-160.905 336.693,-160.905 341.611,-160.002 337.506,-165.331 346.529,-159.099 346.529,-159.099"/>
<polygon fill="#bdf865" stroke="#bdf865" points="742.16,-118.096 752.89,-115.83 746.198,-115.146 750.235,-112.196 750.235,-112.196 750.235,-112.196 746.198,-115.146 747.58,-108.563 742.16,-118.096 742.16,-118.096"/>
</g>
<!-- BlogSweeper -->
<g id="node28" class="node"><title>BlogSweeper</title>
<polygon fill="none" stroke="black" points="2583,-493 2477,-493 2477,-457 2583,-457 2583,-493"/>
<text text-anchor="middle" x="2530" y="-471.4" font-family="Times Roman,serif" font-size="14.00">BlogSweeper</text>
</g>
<!-- Category -->
<g id="node29" class="node"><title>Category</title>
<ellipse fill="none" stroke="black" cx="997" cy="-355" rx="56.0679" ry="18.3848"/>
<text text-anchor="middle" x="997" y="-351.4" font-family="Times Roman,serif" font-size="14.00">Category</text>
</g>
<!-- Category&#45;&gt;Categorization -->
<g id="edge66" class="edge"><title>Category&#45;&gt;Categorization</title>
<path fill="none" stroke="#4a4363" d="M1024.92,-332.119C1038.6,-319.053 1053.69,-301.425 1061,-282 1066.95,-266.193 1066.5,-259.97 1061,-244 1054.93,-226.373 1042.67,-209.739 1031.07,-196.815"/>
<ellipse fill="none" stroke="#4a4363" cx="1021.7" cy="-335.081" rx="4.00002" ry="4.00002"/>
<polygon fill="#4a4363" stroke="#4a4363" points="1030.83,-196.564 1027.27,-186.192 1027.41,-192.917 1023.99,-189.271 1023.99,-189.271 1023.99,-189.271 1027.41,-192.917 1020.71,-192.35 1030.83,-196.564 1030.83,-196.564"/>
</g>
<!-- Category&#45;&gt;Category -->
<g id="edge64" class="edge"><title>Category&#45;&gt;Category</title>
<path fill="none" stroke="#8f223a" d="M1054.98,-362.984C1064.47,-361.844 1071,-359.183 1071,-355 1071,-351.107 1065.35,-348.532 1056.91,-347.275"/>
<ellipse fill="none" stroke="#8f223a" cx="1050.79" cy="-363.285" rx="4" ry="4"/>
<polygon fill="#8f223a" stroke="#8f223a" points="1056.77,-347.263 1047.18,-341.943 1051.78,-346.845 1046.8,-346.428 1046.8,-346.428 1046.8,-346.428 1051.78,-346.845 1046.43,-350.912 1056.77,-347.263 1056.77,-347.263"/>
<text text-anchor="middle" x="1098.5" y="-351.4" font-family="Times Roman,serif" font-size="14.00">children</text>
</g>
<!-- Category&#45;&gt;Article -->
<g id="edge68" class="edge"><title>Category&#45;&gt;Article</title>
<path fill="none" stroke="#3805f3" d="M941.695,-341.645C866.782,-323.556 734.318,-291.57 663.608,-274.496"/>
<polygon fill="#3805f3" stroke="#3805f3" points="941.7,-341.647 950.365,-348.368 946.561,-342.82 951.421,-343.994 951.421,-343.994 951.421,-343.994 946.561,-342.82 952.477,-339.62 941.7,-341.647 941.7,-341.647"/>
<polygon fill="#3805f3" stroke="#3805f3" points="663.359,-274.436 654.694,-267.714 658.498,-273.262 653.638,-272.088 653.638,-272.088 653.638,-272.088 658.498,-273.262 652.582,-276.463 663.359,-274.436 663.359,-274.436"/>
</g>
<!-- Article&#45;&gt;Resource -->
<g id="edge86" class="edge"><title>Article&#45;&gt;Resource</title>
<path fill="none" stroke="#493b1a" d="M574.167,-248.397C558.873,-242.345 541.723,-234.696 527,-226 512.068,-217.181 496.85,-205.407 484.518,-195.016"/>
<ellipse fill="none" stroke="#493b1a" cx="578.241" cy="-249.972" rx="4.00001" ry="4.00001"/>
<polygon fill="#493b1a" stroke="#493b1a" points="484.444,-194.952 479.797,-185.02 480.654,-191.692 476.863,-188.432 476.863,-188.432 476.863,-188.432 480.654,-191.692 473.929,-191.843 484.444,-194.952 484.444,-194.952"/>
</g>
<!-- Article&#45;&gt;Ping -->
<g id="edge80" class="edge"><title>Article&#45;&gt;Ping</title>
<path fill="none" stroke="#f2f135" d="M574.225,-248.953C556.586,-242.099 538.968,-233.691 534,-226 527.431,-215.829 532.303,-204.194 539.966,-194.253"/>
<ellipse fill="none" stroke="#f2f135" cx="578.006" cy="-250.378" rx="4.00001" ry="4.00001"/>
<polygon fill="#f2f135" stroke="#f2f135" points="539.975,-194.243 549.938,-189.661 543.26,-190.474 546.545,-186.704 546.545,-186.704 546.545,-186.704 543.26,-190.474 543.152,-183.748 539.975,-194.243 539.975,-194.243"/>
</g>
<!-- Article&#45;&gt;Feedback -->
<g id="edge84" class="edge"><title>Article&#45;&gt;Feedback</title>
<path fill="none" stroke="#639680" d="M660.4,-249.548C671.288,-244.041 681.634,-236.429 688,-226 693.115,-217.621 691.906,-207.527 688.49,-198.285"/>
<ellipse fill="none" stroke="#639680" cx="656.452" cy="-251.362" rx="4.00002" ry="4.00002"/>
<polygon fill="#639680" stroke="#639680" points="688.44,-198.176 688.401,-187.21 686.372,-193.623 684.304,-189.071 684.304,-189.071 684.304,-189.071 686.372,-193.623 680.207,-190.933 688.44,-198.176 688.44,-198.176"/>
</g>
<!-- Article&#45;&gt;Feedback -->
<g id="edge96" class="edge"><title>Article&#45;&gt;Feedback</title>
<path fill="none" stroke="#7e0c49" d="M575.393,-247.47C555.657,-237.52 538.446,-223.578 550,-208 550.579,-207.219 587.333,-196.132 620.345,-186.297"/>
<ellipse fill="none" stroke="#7e0c49" cx="579.116" cy="-249.236" rx="4.00002" ry="4.00002"/>
<polygon fill="#7e0c49" stroke="#7e0c49" points="620.388,-186.284 631.256,-187.745 625.181,-184.858 629.973,-183.432 629.973,-183.432 629.973,-183.432 625.181,-184.858 628.69,-179.119 620.388,-186.284 620.388,-186.284"/>
<text text-anchor="middle" x="617" y="-213.4" font-family="Times Roman,serif" font-size="14.00">published_feedback</text>
</g>
<!-- Article&#45;&gt;Trackback -->
<g id="edge82" class="edge"><title>Article&#45;&gt;Trackback</title>
<path fill="none" stroke="#835168" d="M655.85,-247.24C671.068,-240.963 688.484,-233.463 704,-226 725.493,-215.662 748.919,-202.996 767.794,-192.427"/>
<ellipse fill="none" stroke="#835168" cx="651.817" cy="-248.89" rx="4.00001" ry="4.00001"/>
<polygon fill="#835168" stroke="#835168" points="767.955,-192.336 778.876,-191.346 772.31,-189.881 776.666,-187.426 776.666,-187.426 776.666,-187.426 772.31,-189.881 774.456,-183.505 767.955,-192.336 767.955,-192.336"/>
</g>
<!-- Article&#45;&gt;Trackback -->
<g id="edge94" class="edge"><title>Article&#45;&gt;Trackback</title>
<path fill="none" stroke="#baa16d" d="M662.454,-252.767C685.109,-246.74 712.299,-237.926 735,-226 743.797,-221.379 761.417,-207.524 776.778,-194.877"/>
<ellipse fill="none" stroke="#baa16d" cx="658.518" cy="-253.783" rx="4.00001" ry="4.00001"/>
<polygon fill="#baa16d" stroke="#baa16d" points="776.851,-194.816 787.42,-191.891 780.698,-191.622 784.545,-188.429 784.545,-188.429 784.545,-188.429 780.698,-191.622 781.671,-184.966 776.851,-194.816 776.851,-194.816"/>
<text text-anchor="middle" x="833.5" y="-213.4" font-family="Times Roman,serif" font-size="14.00">published_trackbacks</text>
</g>
<!-- Article&#45;&gt;User -->
<g id="edge72" class="edge"><title>Article&#45;&gt;User</title>
<path fill="none" stroke="#707fce" d="M573.615,-278.638C559.87,-284.492 544.86,-291.752 532,-300 518.026,-308.962 504.055,-321.018 492.922,-331.558"/>
<polygon fill="#707fce" stroke="#707fce" points="573.642,-278.626 584.602,-278.974 578.264,-276.72 582.887,-274.814 582.887,-274.814 582.887,-274.814 578.264,-276.72 581.171,-270.654 573.642,-278.626 573.642,-278.626"/>
<polygon fill="#707fce" stroke="#707fce" points="492.883,-331.595 482.57,-335.325 489.293,-335.076 485.703,-338.556 485.703,-338.556 485.703,-338.556 489.293,-335.076 488.835,-341.787 492.883,-331.595 492.883,-331.595"/>
<text text-anchor="middle" x="574.5" y="-305.4" font-family="Times Roman,serif" font-size="14.00">notify_users</text>
</g>
<!-- Article&#45;&gt;Trigger -->
<g id="edge78" class="edge"><title>Article&#45;&gt;Trigger</title>
<path fill="none" stroke="#3e9814" d="M574.098,-248.848C569.02,-247.188 563.898,-245.539 559,-244 540.496,-238.188 404.274,-205.783 393,-190 383.184,-176.257 384.713,-166.716 393,-152 403.655,-133.079 423.406,-119.717 442.064,-110.711"/>
<ellipse fill="none" stroke="#3e9814" cx="578.205" cy="-250.201" rx="4.00001" ry="4.00001"/>
<polygon fill="#3e9814" stroke="#3e9814" points="442.261,-110.622 453.227,-110.616 446.82,-108.568 451.378,-106.513 451.378,-106.513 451.378,-106.513 446.82,-108.568 449.529,-102.411 442.261,-110.622 442.261,-110.622"/>
</g>
<!-- Article&#45;&gt;Notification -->
<g id="edge70" class="edge"><title>Article&#45;&gt;Notification</title>
<path fill="none" stroke="#b30a01" d="M578.596,-246.89C575.059,-245.764 571.491,-244.772 568,-244 500.838,-229.154 322.129,-253.309 259,-226 237.648,-216.763 232.254,-210.361 221,-190 209.742,-169.63 205.103,-143.525 203.217,-123.836"/>
<ellipse fill="none" stroke="#b30a01" cx="582.467" cy="-248.227" rx="4.00001" ry="4.00001"/>
<polygon fill="#b30a01" stroke="#b30a01" points="203.199,-123.606 206.915,-113.288 202.814,-118.62 202.428,-113.635 202.428,-113.635 202.428,-113.635 202.814,-118.62 197.941,-113.982 203.199,-123.606 203.199,-123.606"/>
</g>
<!-- Article&#45;&gt;Redirection -->
<g id="edge74" class="edge"><title>Article&#45;&gt;Redirection</title>
<path fill="none" stroke="#05c8ab" d="M665.366,-256.37C694.838,-252.515 733.027,-247.704 767,-244 840.871,-235.945 1051.73,-248.926 1097,-190 1170.86,-93.864 956.848,-46.4184 840.195,-28.2095"/>
<ellipse fill="none" stroke="#05c8ab" cx="661.261" cy="-256.909" rx="4.00001" ry="4.00001"/>
<polygon fill="#05c8ab" stroke="#05c8ab" points="840.139,-28.2009 830.932,-22.2429 835.196,-27.4461 830.253,-26.6913 830.253,-26.6913 830.253,-26.6913 835.196,-27.4461 829.574,-31.1398 840.139,-28.2009 840.139,-28.2009"/>
</g>
<!-- Article&#45;&gt;Redirect -->
<g id="edge76" class="edge"><title>Article&#45;&gt;Redirect</title>
<path fill="none" stroke="#ac9680" d="M669.25,-260.011C749.175,-254.973 892.5,-243.588 908,-226 929.271,-201.863 900.132,-177.727 873,-152 855.972,-135.854 833.5,-122.725 813.891,-113.155"/>
<polygon fill="#ac9680" stroke="#ac9680" points="668.867,-260.034 658.608,-256.159 663.876,-260.343 658.886,-260.651 658.886,-260.651 658.886,-260.651 663.876,-260.343 659.163,-265.142 668.867,-260.034 668.867,-260.034"/>
<polygon fill="#ac9680" stroke="#ac9680" points="813.868,-113.144 806.744,-104.808 809.346,-111.011 804.824,-108.878 804.824,-108.878 804.824,-108.878 809.346,-111.011 802.904,-112.948 813.868,-113.144 813.868,-113.144"/>
</g>
<!-- Article&#45;&gt;Categorization -->
<g id="edge88" class="edge"><title>Article&#45;&gt;Categorization</title>
<path fill="none" stroke="#a04e97" d="M667.079,-260.371C744.121,-255.846 886.043,-245.173 933,-226 949.855,-219.118 966.106,-207.072 978.796,-196.004"/>
<ellipse fill="none" stroke="#a04e97" cx="662.917" cy="-260.611" rx="4" ry="4"/>
<polygon fill="#a04e97" stroke="#a04e97" points="978.797,-196.004 989.231,-192.631 982.504,-192.649 986.212,-189.294 986.212,-189.294 986.212,-189.294 982.504,-192.649 983.192,-185.957 978.797,-196.004 978.797,-196.004"/>
</g>
<!-- Article&#45;&gt;Comment -->
<g id="edge90" class="edge"><title>Article&#45;&gt;Comment</title>
<path fill="none" stroke="#b0cf42" d="M576.178,-248.275C570.475,-246.593 564.632,-245.093 559,-244 527.089,-237.808 289.267,-249.682 267,-226 259.656,-218.189 261.856,-207.546 267.011,-197.702"/>
<ellipse fill="none" stroke="#b0cf42" cx="580.017" cy="-249.471" rx="4.00001" ry="4.00001"/>
<polygon fill="#b0cf42" stroke="#b0cf42" points="267.135,-197.501 276.217,-191.355 269.762,-193.246 272.388,-188.991 272.388,-188.991 272.388,-188.991 269.762,-193.246 268.558,-186.628 267.135,-197.501 267.135,-197.501"/>
</g>
<!-- Article&#45;&gt;Comment -->
<g id="edge92" class="edge"><title>Article&#45;&gt;Comment</title>
<path fill="none" stroke="#91c501" d="M576.174,-248.299C570.471,-246.613 564.63,-245.106 559,-244 529.279,-238.163 307.698,-248.113 287,-226 280.434,-218.985 279.183,-208.989 280.084,-199.439"/>
<ellipse fill="none" stroke="#91c501" cx="580.013" cy="-249.496" rx="4.00001" ry="4.00001"/>
<polygon fill="#91c501" stroke="#91c501" points="280.111,-199.276 286.195,-190.153 280.934,-194.344 281.757,-189.412 281.757,-189.412 281.757,-189.412 280.934,-194.344 277.318,-188.672 280.111,-199.276 280.111,-199.276"/>
<text text-anchor="middle" x="359" y="-213.4" font-family="Times Roman,serif" font-size="14.00">published_comments</text>
</g>
</g>
</svg>
